<?xml version="1.0" standalone="no"?>
<!DOCTYPE svg PUBLIC "-//W3C//DTD SVG 20010904//EN"
 "http://www.w3.org/TR/2001/REC-SVG-20010904/DTD/svg10.dtd">
<svg version="1.0" xmlns="http://www.w3.org/2000/svg"
 width="512.000000pt" height="512.000000pt" viewBox="0 0 512.000000 512.000000"
 preserveAspectRatio="xMidYMid meet">

<g transform="translate(0.000000,512.000000) scale(0.100000,-0.100000)"
fill="#000000" stroke="none">
<path d="M2510 5090 c-30 -13 -369 -355 -380 -384 -9 -27 7 -74 30 -86 48 -26
69 -14 197 112 l123 122 0 -511 0 -511 -257 -142 c-142 -79 -266 -151 -275
-162 -39 -44 -8 -121 49 -121 19 0 119 50 293 147 146 80 269 145 276 144 17
-5 1253 -692 1254 -698 0 -7 -1246 -700 -1260 -700 -6 0 -292 156 -635 347
-472 263 -621 351 -612 359 7 6 111 66 232 134 121 67 230 132 243 143 45 42
12 127 -50 127 -30 0 -589 -316 -620 -350 l-28 -30 0 -808 0 -808 -445 -248
c-245 -137 -448 -246 -450 -244 -3 2 15 75 40 161 25 86 45 162 45 170 0 8 -9
26 -21 41 -27 34 -77 36 -106 3 -20 -22 -153 -470 -153 -516 0 -41 37 -88 83
-105 62 -23 463 -136 482 -136 25 0 65 46 65 75 0 48 -35 68 -203 116 -86 24
-157 46 -157 49 0 6 877 495 886 494 3 0 102 -54 219 -120 l212 -119 7 -95
c21 -319 176 -586 440 -761 167 -110 314 -153 526 -153 212 0 365 44 529 154
262 176 416 444 437 761 l7 95 81 44 c44 24 142 79 216 121 l135 78 30 -18
c17 -9 216 -120 443 -246 226 -126 412 -231 412 -234 0 -3 -71 -26 -157 -50
-168 -48 -203 -68 -203 -116 0 -29 40 -75 65 -75 23 0 476 130 506 146 27 14
59 68 59 100 0 43 -134 490 -153 512 -29 32 -79 30 -106 -4 -12 -15 -21 -33
-21 -41 0 -8 20 -84 45 -170 25 -86 43 -159 40 -161 -2 -2 -204 107 -449 244
l-446 248 0 297 c0 294 0 298 -22 324 -30 35 -84 38 -110 5 -16 -20 -18 -45
-19 -269 -1 -135 -4 -275 -8 -310 l-6 -64 -115 -64 c-63 -36 -143 -80 -176
-99 l-62 -35 -22 73 c-51 170 -172 351 -313 468 -126 105 -329 194 -490 215
l-48 6 3 101 3 101 615 342 615 343 5 -280 c5 -262 6 -281 24 -294 30 -22 74
-17 101 11 l25 24 0 360 0 361 -27 30 c-16 17 -243 150 -538 313 -280 157
-582 324 -670 373 l-160 90 -3 507 c-1 279 1 507 5 507 4 0 62 -54 128 -120
126 -124 147 -136 195 -110 23 12 40 59 29 85 -4 11 -90 102 -191 203 -167
166 -188 184 -224 188 -21 2 -50 -1 -64 -6z m-641 -2585 l611 -340 0 -103 c0
-74 -4 -104 -12 -106 -7 -2 -53 -11 -103 -20 -241 -46 -470 -201 -612 -413
-56 -84 -116 -218 -128 -286 -4 -20 -12 -37 -17 -37 -5 0 -90 45 -189 101
l-179 101 0 725 c0 453 4 723 9 721 6 -1 285 -156 620 -343z m895 -725 c291
-74 514 -303 591 -605 26 -100 24 -284 -4 -389 -159 -598 -890 -814 -1343
-397 -117 108 -188 223 -233 375 -137 473 179 962 670 1036 81 12 231 3 319
-20z"/>
<path d="M2033 1294 c-20 -20 -24 -31 -19 -57 11 -59 33 -67 177 -67 l129 0 0
-49 0 -49 -131 -4 c-129 -3 -131 -3 -155 -31 -32 -37 -30 -62 5 -98 29 -29 30
-29 155 -29 l126 0 0 -50 0 -50 -120 0 c-129 0 -162 -9 -179 -47 -16 -34 -14
-47 10 -77 l20 -26 171 0 170 0 39 39 39 39 1 118 c1 66 1 178 -1 249 -2 143
-8 162 -63 195 -28 18 -51 20 -190 20 -156 0 -158 0 -184 -26z"/>
<path d="M2629 1291 l-29 -29 0 -272 0 -272 29 -29 c29 -29 30 -29 156 -29
172 0 233 28 291 132 28 52 29 57 29 198 0 164 -9 193 -81 263 -55 53 -106 67
-247 67 -118 0 -119 0 -148 -29z m271 -134 c41 -21 60 -71 60 -165 0 -143 -30
-182 -142 -182 l-68 0 0 180 0 180 63 0 c34 0 73 -6 87 -13z"/>
</g>
</svg>
